<?xml version="1.0" encoding="utf-8"?>
<svg width="2037" height="468" viewBox="0 0 2037 468" fill="none" xmlns="http://www.w3.org/2000/svg">
<path d="M671.88 377.723V402.109H648.04V377.723H634.37V440.989H648.04V414.873H671.88V440.989H685.55V377.723H671.88Z" fill="black"/>
<path d="M727.16 428.323V415.33H749.1V402.925H727.16V390.389H751.45V377.723H713.48V440.989H752.46V428.323H727.16Z" fill="black"/>
<path d="M791.11 428.323V377.723H777.43V440.989H815.4V428.323H791.11Z" fill="black"/>
<path d="M862.36 377.723H838.04V440.989H851.71V421.271H862.36C875.12 421.271 884.69 411.967 884.69 399.497C884.69 387.027 875.02 377.723 862.36 377.723ZM861.74 408.638H851.71V390.454H861.74C867.16 390.454 870.88 394.274 870.88 399.497C870.88 404.753 867.16 408.638 861.74 408.638Z" fill="black"/>
<path d="M995.45 377.723H980.79L966.16 403.121L951.6 377.723H937.04L959.11 415.395V440.989H973.12V415.493L995.45 377.723Z" fill="black"/>
<path d="M1047.54 442.426C1066.77 442.426 1081.16 428.258 1081.16 409.357C1081.16 390.553 1066.77 376.353 1047.54 376.353C1028.18 376.353 1013.72 390.651 1013.72 409.357C1013.72 428.16 1028.18 442.426 1047.54 442.426ZM1047.54 429.499C1036.25 429.499 1027.66 420.75 1027.66 409.357C1027.66 397.964 1036.25 389.28 1047.54 389.28C1058.84 389.28 1067.23 397.866 1067.23 409.357C1067.23 420.848 1058.84 429.499 1047.54 429.499Z" fill="black"/>
<path d="M1130.79 442.425C1145.71 442.425 1156.91 432.044 1156.91 417.223V377.723H1143.19V416.57C1143.19 424.438 1138.04 429.498 1130.79 429.498C1123.48 429.498 1118.32 424.438 1118.32 416.57V377.723H1104.58V417.223C1104.58 432.044 1115.81 442.425 1130.79 442.425Z" fill="black"/>
<path d="M1218.94 440.989H1234.22L1220.21 417.125C1227.26 413.698 1231.8 407.005 1231.8 398.681C1231.8 386.504 1222.3 377.723 1209.64 377.723H1184.14V440.989H1197.82V419.476H1206.57L1218.94 440.989ZM1197.82 390.389H1208.75C1214.53 390.389 1217.86 393.915 1217.86 398.616C1217.86 403.382 1214.53 406.809 1208.75 406.809H1197.82V390.389Z" fill="black"/>
<path d="M1321.37 442.426C1337.01 442.426 1349.31 431.947 1352.19 416.31H1338.38C1336.13 424.276 1329.69 429.336 1321.37 429.336C1310.63 429.336 1302.57 420.848 1302.57 409.455C1302.57 398.062 1310.63 389.476 1321.37 389.476C1329.34 389.476 1335.67 394.177 1338.28 401.587H1351.93C1349.02 386.57 1336.75 376.353 1321.37 376.353C1302.76 376.353 1288.66 390.651 1288.66 409.455C1288.66 428.16 1302.76 442.426 1321.37 442.426Z" fill="black"/>
<path d="M1405.47 442.426C1424.7 442.426 1439.1 428.258 1439.1 409.357C1439.1 390.553 1424.7 376.353 1405.47 376.353C1386.11 376.353 1371.65 390.651 1371.65 409.357C1371.65 428.16 1386.11 442.426 1405.47 442.426ZM1405.47 429.499C1394.18 429.499 1385.59 420.75 1385.59 409.357C1385.59 397.964 1394.18 389.28 1405.47 389.28C1416.77 389.28 1425.16 397.866 1425.16 409.357C1425.16 420.848 1416.77 429.499 1405.47 429.499Z" fill="black"/>
<path d="M1463.22 440.989H1476.9V377.723H1463.22V440.989Z" fill="black"/>
<path d="M1544.92 377.723V416.309L1517.18 377.723H1504.87V440.989H1518.25V401.488L1546.92 440.989H1558.41V377.723H1544.92Z" fill="black"/>
<path d="M1659.36 407.626C1663.8 404.557 1666.51 399.497 1666.51 394.078C1666.51 384.774 1658.38 377.821 1647.44 377.821H1621.3V441.087H1648.16C1659.2 441.087 1668.14 432.958 1668.14 422.838C1668.14 416.048 1664.88 410.629 1659.36 407.626ZM1653.22 396.167C1653.22 400.15 1650.42 402.925 1646.17 402.925H1634.68V389.475H1646.17C1650.42 389.475 1653.22 392.185 1653.22 396.167ZM1646.89 428.519H1634.68V414.318H1646.89C1651.39 414.318 1654.4 417.321 1654.4 421.369C1654.4 425.548 1651.39 428.519 1646.89 428.519Z" fill="black"/>
<path d="M1706.42 428.323V415.33H1728.35V402.925H1706.42V390.389H1730.7V377.723H1692.74V440.989H1731.72V428.323H1706.42Z" fill="black"/>
<path d="M1800.27 377.723H1751.36V390.454H1768.99V440.989H1782.64V390.454H1800.27V377.723Z" fill="black"/>
<path d="M1866.47 377.723H1817.57V390.454H1835.2V440.989H1848.84V390.454H1866.47V377.723Z" fill="black"/>
<path d="M1902.77 428.323V415.33H1924.71V402.925H1902.77V390.389H1927.06V377.723H1889.09V440.989H1928.07V428.323H1902.77Z" fill="black"/>
<path d="M1987.84 440.989H2003.12L1989.11 417.125C1996.16 413.698 2000.7 407.005 2000.7 398.681C2000.7 386.504 1991.2 377.723 1978.54 377.723H1953.04V440.989H1966.72V419.476H1975.47L1987.84 440.989ZM1966.72 390.389H1977.65C1983.43 390.389 1986.76 393.915 1986.76 398.616C1986.76 403.382 1983.43 406.809 1977.65 406.809H1966.72V390.389Z" fill="black"/>
<path d="M684.54 266.251C728.25 266.251 762.69 237.719 770.43 195.542H724.86C717.09 213.529 702.82 223.453 684.54 223.453C660.35 223.453 641.41 203.279 641.41 177.554C641.41 151.503 660.02 131.655 684.54 131.655C702.53 131.655 717.71 141.579 724.86 158H769.81C761.74 116.769 728.25 89.151 684.83 89.151C633.97 89.151 595.516 126.987 595.516 177.228C595.516 227.469 633.97 266.251 684.54 266.251Z" fill="#FE8217"/>
<path d="M879.9 266.251C931.71 266.251 970.46 228.089 970.46 177.554C970.46 126.987 931.71 89.151 879.9 89.151C828.12 89.151 789.34 126.987 789.34 177.554C789.34 228.089 828.12 266.251 879.9 266.251ZM879.9 223.453C853.85 223.453 835.24 204.846 835.24 177.554C835.24 150.557 853.85 131.655 879.9 131.655C905.95 131.655 924.56 150.557 924.56 177.554C924.56 204.846 905.95 223.453 879.9 223.453Z" fill="#FE8217"/>
<path d="M1003.01 71.491H1048V29.607H1003.01V71.491ZM1003.01 261.29H1048.29V93.82H1003.01V261.29Z" fill="#FE8217"/>
<path d="M1186.93 90.1C1164.28 90.1 1144.13 99.697 1131.4 114.583L1122.72 93.821H1091.71V261.29H1136.98V173.508C1136.98 146.543 1151.25 129.796 1174.53 129.796C1194.05 129.796 1203.68 141.875 1203.68 167.305V261.29H1248.96V159.862C1248.96 117.391 1225.06 90.1 1186.93 90.1Z" fill="#FE8217"/>
<path d="M1287.17 261.29H1335.22V212.91H1287.17V261.29Z" fill="black"/>
<path d="M1471.39 90.1C1451.21 90.1 1433.55 97.543 1420.82 109.622V33.657H1375.54V261.291H1420.82V173.508C1420.82 146.217 1435.71 129.797 1458.36 129.797C1478.5 129.797 1487.51 142.202 1487.51 167.306V261.291H1532.79V159.569C1532.79 117.065 1509.22 90.1 1471.39 90.1Z" fill="#FE8217"/>
<path d="M1736.83 177.228C1736.83 128.848 1701.48 89.151 1650 89.151C1600.38 89.151 1563.16 127.313 1563.16 177.554C1563.16 227.795 1600.7 266.251 1650 266.251C1689.07 266.251 1721.03 242.975 1733.11 206.38H1685.68C1678.86 218.491 1665.83 225.934 1650 225.934C1627.99 225.934 1613.11 213.203 1609.06 190.253H1735.92C1736.54 185.911 1736.83 181.57 1736.83 177.228ZM1650 127.934C1670.47 127.934 1685.06 139.098 1691.55 159.567H1610.3C1615.59 139.719 1629.86 127.934 1650 127.934Z" fill="#FE8217"/>
<path d="M1769.08 261.291H1814.36V33.657H1769.08V261.291Z" fill="#FE8217"/>
<path d="M1948.95 89.151C1928.19 89.151 1909.58 96.594 1895.32 109.326L1887.55 93.82H1857.78V321.78H1903.06V252.279C1915.79 261.289 1931.59 266.577 1948.95 266.577C1999.52 266.577 2036.74 228.415 2036.74 177.554C2036.74 126.987 1999.52 89.151 1948.95 89.151ZM1945.23 223.453C1918.89 223.453 1899.66 203.899 1899.66 177.554C1899.66 151.503 1918.89 131.655 1945.23 131.655C1971.61 131.655 1990.84 151.503 1990.84 177.554C1990.84 203.899 1971.61 223.453 1945.23 223.453Z" fill="#FE8217"/>
<path d="M228.235 122.203L211.162 139.276L184.629 112.744L157.421 85.536L156.746 84.86L156.07 85.536L143.789 97.817L143.786 97.82C138.368 103.141 135.219 106.217 133.168 108.051C131.115 109.886 130.26 110.384 129.431 110.66C125.339 112.024 121.808 111.386 118.772 108.618L118.766 108.612C117.422 107.407 116.515 106.242 115.937 104.977C115.36 103.714 115.085 102.295 115.085 100.547C115.085 99.291 115.131 98.412 115.423 97.491C115.715 96.569 116.279 95.534 117.432 94.05C119.762 91.051 124.288 86.473 133.139 77.622L133.141 77.62C139.775 70.937 143.856 66.906 146.555 64.424C149.271 61.928 150.51 61.077 151.471 60.66L151.488 60.652L151.505 60.644C152.808 60.015 155.004 59.4 157.072 59.003C158.096 58.806 159.059 58.669 159.83 58.61C160.216 58.581 160.539 58.572 160.79 58.582C160.915 58.587 161.012 58.596 161.085 58.608C161.138 58.616 161.167 58.623 161.178 58.626C161.503 58.761 161.93 58.839 162.35 58.894C162.814 58.955 163.373 58.998 163.991 59.027C165.228 59.084 166.753 59.087 168.328 59.044C171.455 58.959 174.898 58.69 176.749 58.278L176.757 58.276C178.786 57.808 182.277 56.217 185.166 54.803C186.632 54.085 187.977 53.395 188.956 52.886C189.445 52.631 189.843 52.42 190.119 52.273C190.257 52.2 190.365 52.142 190.438 52.103L190.522 52.058L190.544 52.047L190.549 52.044L190.551 52.043C190.551 52.043 190.551 52.042 190.097 51.202L190.551 52.042L190.665 51.981L190.758 51.892L207.003 36.348L259.659 90.867L245.985 104.452L245.983 104.455L228.235 122.203Z" stroke="black" stroke-width="1.91045"/>
<path d="M156.746 90.881L185.131 119.362M156.746 90.881L160.149 181.786M156.746 90.881L146.11 101.517L146.108 101.52C139.795 107.784 136.192 111.269 133.489 113.167C132.114 114.133 130.932 114.718 129.71 115.052C128.496 115.383 127.297 115.45 125.931 115.45C123.65 115.45 121.714 115.145 119.921 114.401C118.128 113.658 116.54 112.5 114.918 110.879C113.344 109.305 112.19 107.719 111.436 105.945C110.681 104.17 110.348 102.258 110.348 100.062C110.348 100.01 110.348 99.959 110.348 99.909C110.347 98.52 110.347 97.332 110.649 96.13C110.97 94.856 111.611 93.627 112.796 92.061C115.043 89.094 119.447 84.667 127.988 76.082C128.306 75.762 128.63 75.437 128.959 75.106C137.213 66.803 141.38 62.611 143.321 60.441C143.724 59.991 144.019 59.641 144.229 59.368C144.083 59.355 143.914 59.341 143.723 59.328C143.093 59.283 142.255 59.241 141.267 59.205C139.293 59.132 136.745 59.083 134.122 59.083C129.605 59.083 127.112 59.06 125.261 58.871C123.364 58.678 122.139 58.31 120.174 57.671C115.924 56.287 111.126 53.904 108.654 51.85L107.312 50.795L88.109 36.744L38.322 88.968L53.081 104.364L70.818 121.808L70.82 121.81L87.988 138.603L93.074 133.518L93.079 133.513C96.336 130.304 98.535 128.321 100.514 127.143C102.562 125.925 104.347 125.585 106.699 125.534H106.709H106.72C114.27 125.534 120.5 132.03 119.763 139.545C119.763 139.548 119.763 139.551 119.763 139.553L119.736 139.871C127.593 134.799 138.537 140.54 139.462 150.094V150.104C139.566 151.296 139.542 152.345 139.287 153.543C139.059 154.607 138.655 155.76 138.034 157.209C138.326 157.223 138.703 157.228 139.193 157.228C146.592 157.228 152.676 164.058 151.945 171.432L151.785 173.516L160.149 181.786M185.131 119.362L185.778 118.717M185.131 119.362C200.212 134.492 207.742 142.047 211.51 146.275C213.402 148.398 214.276 149.609 214.693 150.468C215.074 151.252 215.083 151.751 215.083 152.624C215.083 156.069 212.276 159.714 208.752 160.776C207.451 161.137 206.508 161.331 205.629 161.3C204.778 161.27 203.919 161.026 202.82 160.382C200.536 159.044 197.441 156.129 191.649 150.386C190.842 149.579 190.104 148.84 189.429 148.163C186.211 144.939 184.408 143.131 183.324 142.225C182.99 141.946 182.689 141.721 182.41 141.562C182.137 141.405 181.812 141.27 181.447 141.264C181.046 141.257 180.731 141.408 180.5 141.582C180.316 141.72 180.155 141.897 180.051 142.012L180.03 142.035C180.019 142.047 180.007 142.06 179.993 142.075C179.78 142.305 179.324 142.799 179.394 143.545C179.427 143.894 179.565 144.214 179.735 144.505C179.907 144.8 180.147 145.124 180.451 145.492C181.533 146.801 183.755 149.044 187.877 153.203C188.305 153.636 188.754 154.089 189.225 154.564L189.228 154.568C192.002 157.342 194.628 160.04 196.606 162.152C197.595 163.208 198.417 164.112 199.013 164.802C199.312 165.147 199.547 165.432 199.716 165.651C199.905 165.897 199.957 165.991 199.953 165.982L199.962 166.002L199.971 166.022C200.359 166.798 200.602 168.229 200.602 169.812C200.602 171.382 200.363 172.879 199.959 173.774C198.309 177.238 194.101 179.192 190.13 178.222L190.114 178.218L190.098 178.215C189.554 178.101 189.16 177.989 188.709 177.756C188.242 177.516 187.674 177.126 186.827 176.409C185.12 174.965 182.449 172.343 177.414 167.357C177.413 167.356 177.412 167.355 177.411 167.354L166.784 156.727L166.109 156.052L165.433 156.727L164.361 157.8L163.288 158.873L162.612 159.548L163.288 160.224L172.059 168.994C172.06 168.995 172.06 168.996 172.061 168.997C174.786 171.77 177.017 174.123 178.624 175.912C179.429 176.807 180.071 177.554 180.538 178.138C181.012 178.729 181.248 179.084 181.323 179.237C184.015 185.975 177.911 192.749 170.754 190.81C169.902 190.566 169.167 190.21 167.687 188.963C166.174 187.689 163.961 185.549 160.149 181.786" stroke="black" stroke-width="1.91045"/>
<path d="M103.705 130.514L103.718 130.51C109.515 128.489 115.033 132.491 115.125 138.586C115.124 139.801 114.771 141.309 114.342 142.261C114.267 142.402 114.017 142.756 113.54 143.335C113.074 143.902 112.449 144.617 111.705 145.433C110.22 147.064 108.282 149.074 106.247 151.061L106.24 151.067L106.234 151.074C102.458 154.898 100.338 156.914 98.707 157.994C97.915 158.518 97.265 158.802 96.617 158.964C95.962 159.127 95.266 159.176 94.349 159.176C93.034 159.131 91.389 158.496 89.919 157.471C88.442 156.44 87.294 155.122 86.847 153.863L86.841 153.846L86.834 153.828C86.512 153.024 86.342 151.708 86.366 150.31C86.389 148.923 86.6 147.632 86.918 146.865C87.001 146.692 87.26 146.312 87.744 145.716C88.216 145.135 88.844 144.418 89.584 143.61C91.065 141.996 92.969 140.046 94.916 138.141C96.865 136.235 98.846 134.384 100.481 132.965C101.299 132.255 102.021 131.661 102.602 131.225C103.224 130.76 103.581 130.556 103.705 130.514Z" stroke="black" stroke-width="1.91045"/>
<path d="M99.719 166.407L99.723 166.395L99.724 166.392C99.722 166.397 99.722 166.4 99.722 166.4C99.724 166.402 99.769 166.315 99.925 166.104C100.091 165.878 100.329 165.582 100.636 165.219C101.247 164.495 102.099 163.544 103.121 162.44C105.162 160.233 107.855 157.441 110.593 154.672C113.331 151.903 116.109 149.165 118.321 147.067C119.428 146.017 120.387 145.133 121.126 144.487C121.496 144.164 121.803 143.907 122.042 143.721C122.161 143.628 122.257 143.558 122.33 143.509C122.397 143.463 122.426 143.448 122.426 143.448C122.426 143.448 122.425 143.448 122.422 143.449C123.216 143.092 124.593 142.876 126.07 142.887C127.55 142.899 128.914 143.139 129.697 143.53L129.733 143.548L129.77 143.563C130.99 144.051 132.266 145.223 133.249 146.732C134.23 148.237 134.825 149.935 134.825 151.355C134.825 152.199 134.777 152.807 134.576 153.434C134.373 154.063 133.994 154.778 133.239 155.777C131.704 157.808 128.789 160.799 123.208 166.38L123.205 166.383C118.123 171.514 115.374 174.238 113.604 175.768C112.725 176.528 112.12 176.965 111.618 177.251C111.13 177.528 110.709 177.68 110.165 177.839C105.993 178.99 101.999 177.308 100.169 173.564C99.7 172.582 99.403 171.273 99.323 169.936C99.243 168.594 99.387 167.32 99.719 166.407Z" stroke="black" stroke-width="1.91045"/>
<path d="M135.206 162.461L135.215 162.457C140.186 160.102 146.331 163.432 147.122 168.842C147.265 169.967 147.318 170.798 147.22 171.556C147.125 172.294 146.881 173.011 146.36 173.877C145.276 175.68 143.086 178.001 138.811 182.275L138.807 182.28C135.084 186.052 133.156 187.952 131.847 188.993C131.208 189.5 130.749 189.776 130.327 189.961C129.898 190.149 129.469 190.261 128.839 190.406C127.247 190.77 125.894 190.781 124.659 190.461C123.425 190.142 122.241 189.476 121.012 188.384C118.138 185.769 117.412 181.571 119.364 177.841C119.487 177.613 119.776 177.21 120.245 176.641C120.704 176.084 121.297 175.413 121.986 174.667C123.364 173.174 125.107 171.4 126.89 169.666C128.674 167.931 130.489 166.243 132.01 164.921C132.772 164.259 133.453 163.694 134.015 163.263C134.598 162.817 134.995 162.559 135.206 162.461Z" stroke="black" stroke-width="1.91045"/>
<path d="M136.768 192.264L136.772 192.253C136.815 192.136 136.934 191.913 137.165 191.579C137.386 191.257 137.679 190.878 138.03 190.455C138.732 189.612 139.638 188.634 140.599 187.673C141.559 186.713 142.562 185.782 143.457 185.029C144.374 184.258 145.11 183.732 145.552 183.521C150.995 180.929 157.261 184.945 157.448 191.448C157.446 192.909 157.185 194.053 156.467 195.297C155.722 196.587 154.465 198.021 152.38 200.008L152.372 200.016C150.356 201.984 148.758 203.148 147.3 203.724C145.886 204.284 144.541 204.315 142.958 203.875L142.956 203.874C137.803 202.453 134.936 197.062 136.768 192.264Z" stroke="black" stroke-width="1.91045"/>
<path d="M36 328.683H105.86V442.712H36V328.683Z" fill="#FE8217"/>
<path d="M144.1 442.711V313.012H214.548V442.711H144.1Z" fill="#FE8217"/>
<path d="M252.4 274.526H325.101V442.714H252.4V274.526Z" fill="#FE8217"/>
<path d="M365.134 207.536H433.558V442.711H365.134V207.536Z" fill="#FE8217"/>
<path d="M38.9 289.491C38.9 289.491 224.194 264.484 351.052 96.264L309.691 69.201L435.146 25V157.245L400.934 127.604C400.934 127.604 245.576 303.169 38.9 289.491Z" fill="#FE8217"/>
</svg>
