<?xml version="1.0" encoding="utf-8"?>
<!-- Generator: Adobe Illustrator 24.2.0, SVG Export Plug-In . SVG Version: 6.00 Build 0)  -->
<svg version="1.1" id="logo_1" xmlns="http://www.w3.org/2000/svg" xmlns:xlink="http://www.w3.org/1999/xlink" x="0px" y="0px"
	 viewBox="0 0 544.7 173.4" style="enable-background:new 0 0 544.7 173.4;" xml:space="preserve">
<style type="text/css">
	.st0{fill:#FFFFFF;}
</style>
<g>
	<path class="st0" d="M-0.1,126.9c0,0,0-15.4,15.8-38c4.7-6.8,9.9-13.2,15.5-19.2c0,0,1.5-27.5,29.7-50.4c36.7-29.8,77-16.3,77-16.3
		c-24.4,10.1-39.6,18.9-72.5,44.4C22.4,80.7,7.3,108.3-0.1,126.9z"/>
	<path class="st0" d="M93.9,67.2c-9.4-7.2-27,3.3-42.4,16c-11.7,9.6-31.2,27.7-40.5,42.2C-6.5,153,11,155.3,30,148.4
		c7.2-2.6,17.6-8.6,17.6-8.6l5,5.3l6.3,6.6c0,0,20.4-12.7,31.8-39.1C96.5,98.9,100.1,71.9,93.9,67.2z M23.2,134.3
		c-7.1,1.9-13,1.9-6.5-10.3c3.4-6.3,14.6-18.5,14.6-18.5s2.4,8.8,3.5,11.6c1.1,2.9,4.5,9.2,4.5,9.2S30.2,132.4,23.2,134.3z"/>
	<path class="st0" d="M78.5,68.5c2.7-1.7,8.3-3.7,8.3-3.7c-9.8-0.2-23.1,8.4-35.2,18.3c-11.7,9.6-31.2,27.7-40.5,42.2
		C-6.5,153,11,155.3,30,148.4c7.2-2.6,17.6-8.6,17.6-8.6s-1.8-2.9-5.4-8.8c-5-8-4.7-29.3,5.6-39.8C60.7,78,71,73.1,78.5,68.5z
		 M23.2,134.3c-7.1,1.9-13,1.9-6.5-10.3c3.4-6.3,14.6-18.5,14.6-18.5s2.4,8.8,3.5,11.6c1.1,2.9,4.5,9.2,4.5,9.2
		S30.2,132.4,23.2,134.3z"/>
	<path class="st0" d="M31.3,105.5c-3.7,4.2-15.5,17.4-17.9,24.5c-2.7,8-0.7,12.7,12.9,9.4c7.4-1.8,17.2-6.4,17.2-6.4l-1.3-2.1
		c-5-8-2.9-19.7-2.9-24.9C39.2,104.4,34.1,102.3,31.3,105.5z M23.2,134.3c-7.1,1.9-13,1.9-6.5-10.3c3.4-6.3,14.6-18.5,14.6-18.5
		s2.4,8.8,3.5,11.6c1.1,2.9,4.5,9.2,4.5,9.2S30.2,132.4,23.2,134.3z"/>
	<path class="st0" d="M44,133.8c0,0-4.7-14.5-3.8-22.5c1.1-9,4.4-13.2,15.8-25c13.6-14,30.7-21.4,30.7-21.4s-11.4,0.5-29.6,14.7
		c-14.8,11.5-25.9,25.9-25.9,25.9s1.6,8,3.5,12.4C37.4,123.6,44,133.8,44,133.8z"/>
	<path class="st0" d="M35,54.5c0,0,9.9-7.8,18.7-12.5c17-9.1,34.9-13.3,34.9-13.3S68.2,40,53.7,50.4c-7.6,5.5-22.6,19.3-22.6,19.3
		c0.3-2.8,0.8-5.5,1.5-8.1C33.3,59.2,34,56.8,35,54.5z"/>
	<path class="st0" d="M231.7,46.8c0,0,0,15.4-15.9,37.9c-4.7,6.8-9.9,13.2-15.5,19.2c0,0-1.6,27.5-29.9,50.3
		c-36.8,29.7-77,16.1-77,16.1c24.5-10,39.6-18.8,72.7-44.2C209,92.9,224.2,65.4,231.7,46.8z"/>
	<path class="st0" d="M137.4,106.2c9.4,7.3,27-3.3,42.5-15.9c11.7-9.5,31.3-27.6,40.6-42.1c17.6-27.5,0.2-29.9-18.9-23
		c-7.2,2.6-17.6,8.6-17.6,8.6l-5-5.3l-6.2-6.6c0,0-20.4,12.6-31.9,39.1C134.9,74.6,131.3,101.5,137.4,106.2z M208.3,39.4
		c7.1-1.8,13.1-1.9,6.5,10.3c-3.4,6.3-14.6,18.5-14.6,18.5s-2.4-8.8-3.5-11.6c-1.1-2.9-4.4-9.2-4.4-9.2S201.4,41.2,208.3,39.4z"/>
	<path class="st0" d="M152.9,104.9c-2.7,1.7-8.3,3.7-8.3,3.7c9.8,0.2,23.2-8.4,35.3-18.2c11.7-9.5,31.3-27.6,40.6-42.1
		c17.6-27.5,0.2-29.9-18.9-23c-7.2,2.6-17.6,8.6-17.6,8.6s1.8,2.9,5.4,8.8c4.9,8.1,4.6,29.3-5.7,39.8
		C170.7,95.5,160.4,100.4,152.9,104.9z M208.3,39.4c7.1-1.8,13.1-1.9,6.5,10.3c-3.4,6.3-14.6,18.5-14.6,18.5s-2.4-8.8-3.5-11.6
		c-1.1-2.9-4.4-9.2-4.4-9.2S201.4,41.2,208.3,39.4z"/>
	<path class="st0" d="M200.2,68.1c3.7-4.2,15.6-17.4,18-24.5c2.7-8,0.7-12.7-12.9-9.4c-7.4,1.8-17.2,6.4-17.2,6.4l1.3,2.1
		c4.9,8.1,2.9,19.7,2.9,24.9C192.2,69.2,197.4,71.3,200.2,68.1z M208.3,39.4c7.1-1.8,13.1-1.9,6.5,10.3
		c-3.4,6.3-14.6,18.5-14.6,18.5s-2.4-8.8-3.5-11.6c-1.1-2.9-4.4-9.2-4.4-9.2S201.4,41.2,208.3,39.4L208.3,39.4z"/>
	<path class="st0" d="M187.6,39.8c0,0,4.7,14.6,3.7,22.6c-1.1,9-4.4,13.2-15.9,25c-13.7,14-30.8,21.3-30.8,21.3s11.4-0.5,29.6-14.6
		c14.8-11.5,26-25.8,26-25.8s-1.5-8-3.5-12.4C194.2,50,187.6,39.8,187.6,39.8z"/>
	<path class="st0" d="M196.4,119.1c0,0-9.9,7.8-18.7,12.5c-17,9-34.9,13.2-34.9,13.2s20.3-11.2,34.9-21.6
		c7.6-5.4,22.6-19.3,22.6-19.3c-0.3,2.8-0.8,5.5-1.5,8.1C198.1,114.4,197.3,116.8,196.4,119.1z"/>
</g>
<path class="st0" d="M275,125.6c-0.2,2.2,0.8,3.3,2.9,3.3l-0.5,5.9h-5c-2.9,0-5.2-0.8-6.9-2.3c-1.7-1.6-2.4-3.8-2.2-6.9l1.8-20.4
	h-11.2l-2.6,29.6h-11.8l5.2-59.3h-3.4l0.5-5.9h15.1l-2.6,29.6h11.2l2.6-29.6h11.9L275,125.6z M320.2,128.9l-0.5,5.9h-4.1
	c-4.1,0-7.1-1.2-9-3.6c-2.4,2.4-5.7,3.7-9.1,3.6h-1.9c-4,0-7.4-1.1-10.3-3.2c-3-2.1-4.6-5.7-4.1-9.4l1.7-19.8c0.3-3.8,2.3-7,5.8-9.4
	c3.2-2.1,7-3.2,10.8-3.2h20.4l-3,35C316.6,127.5,317.7,128.8,320.2,128.9z M307.5,95.8H299c-2.5,0-3.9,1.5-4.1,4.4l-1.9,22.7
	c-0.3,4,1.3,5.9,5,5.9c1.8,0,3.6-0.7,4.9-1.9c1.4-1.2,2.2-2.9,2.4-4.7L307.5,95.8z M342.5,69.6h-14.9l-0.5,5.9h3.2l-4.2,48.2
	c-0.3,3.4,0.7,6.1,3.1,8.1c2.4,2,5.7,3,10,3h1.9l0.4-5.9c-2.7-0.2-3.9-1.9-3.6-5.1L342.5,69.6z M379.3,102.5l-1.8,19.8
	c-0.3,3.5-2.1,6.4-5.3,8.9c-3.3,2.5-7.2,3.7-11.3,3.7h-1.8c-4.1,0-7.5-1.1-10.3-3.2c-3-2.1-4.6-5.7-4.1-9.4l1.8-19.8
	c0.3-3.9,2.3-7,5.8-9.4c3.2-2.1,6.9-3.3,10.8-3.2h1.9c4,0,7.4,1.1,10.3,3.2C378.3,95.5,379.7,98.6,379.3,102.5L379.3,102.5z
	 M366.5,97.6c-0.7-1.1-1.9-1.7-3.1-1.7c-1.3,0-2.5,0.6-3.4,1.6c-1.1,1.4-1.8,3.1-1.9,5l-1.7,19.8c-0.2,2,0.1,3.6,1,4.8
	c0.7,1.1,1.8,1.8,3.1,1.9c1.2,0.1,2.4-0.5,3.4-1.6s1.6-2.8,1.8-5l1.7-19.8C367.7,100.3,367.3,98.7,366.5,97.6L366.5,97.6z
	 M383.4,89.9l-0.5,5.9H403l-25.1,39.1h38.1l0.5-5.9h-20.2l25-39.1H383.4z M496.4,125.1l1.9-22.4c0.3-4.4-1-7.7-4.1-9.9
	c-2.7-2-6.5-2.9-11.4-2.9h-20l-0.5,5.9h3.3l-3.4,39.1H474l3.5-39h4.8c1.4,0,2.7,0.7,3.4,1.9c0.7,1.1,1,2.3,0.9,3.6l-2.1,24.5
	c-0.2,2.9,0.6,5.2,2.7,6.9c1.8,1.4,4.1,2.1,7.1,2.1h5l0.5-5.9c-1.5,0-2.4-0.2-2.7-0.5C496.5,127.9,496.3,126.8,496.4,125.1z
	 M542.5,128.9l-0.5,5.9h-4.4c-4.1,0-7.1-1.2-9.1-3.6c-2.6,2.4-5.9,3.6-10,3.6c-4.3,0-7.9-1-10.8-2.9c-3.4-2.2-4.9-5.5-4.5-9.6
	l1.7-19.8c0.3-3.8,2.3-7,5.8-9.4c3.2-2.1,6.9-3.2,10.8-3.2h8.5l1.3-14.3h-3.4l0.5-5.9h15.3l-4.9,55.3
	C538.6,127.6,539.8,128.9,542.5,128.9z M529.5,95.8h-8.6c-2.5,0-3.8,1.5-4.1,4.4l-1.9,22.7c-0.3,4,1.3,5.9,5,5.9
	c1.8,0,3.6-0.7,4.9-1.9c1.4-1.2,2.2-2.9,2.4-4.7L529.5,95.8z M456.3,102.4l-1.1,12.8H434l-0.6,7c-0.2,2,0.1,3.6,1,4.8
	c0.7,1.1,1.8,1.8,3.1,1.9c1.2,0.1,2.4-0.5,3.4-1.6c1-1.2,1.6-2.8,1.8-4.9h11.8c-0.3,3.4-2.1,6.4-5.3,8.8c-3.3,2.5-7.2,3.8-11.3,3.7
	h-1.8c-4.1,0-7.5-1.1-10.3-3.2c-3-2.1-4.6-5.7-4.2-9.4l1.8-19.8c0.3-3.9,2.3-7,5.8-9.4c3.2-2.2,6.9-3.3,10.8-3.2h1.9
	c4,0,7.4,1.1,10.3,3.2C455.2,95.5,456.6,98.6,456.3,102.4z M443.5,97.6c-0.7-1.1-1.9-1.7-3.1-1.7c-1.3,0-2.5,0.6-3.4,1.6
	c-1.1,1.4-1.8,3.1-1.9,5l-0.6,7h9.3l0.6-7C444.6,100.3,444.3,98.7,443.5,97.6L443.5,97.6z"/>
</svg>
