<?xml version="1.0" encoding="utf-8"?>
<!-- Generator: Adobe Illustrator 24.2.0, SVG Export Plug-In . SVG Version: 6.00 Build 0)  -->
<svg version="1.1" id="logo_1" xmlns="http://www.w3.org/2000/svg" xmlns:xlink="http://www.w3.org/1999/xlink" x="0px" y="0px"
	 viewBox="0 0 544.7 173.4" style="enable-background:new 0 0 544.7 173.4;" xml:space="preserve">
<style type="text/css">
	.st0{fill:#FFFFFF;}
</style>
<g id="_Group_">
	<path id="_Path_" class="st0" d="M0,126.9c0,0,0-15.4,15.8-38c4.7-6.8,9.9-13.2,15.5-19.2c0,0,1.5-27.5,29.7-50.4
		C97.7-10.5,138,3,138,3c-24.4,10.1-39.6,18.9-72.5,44.5C22.5,80.8,7.4,108.3,0,126.9z"/>
	<path id="_Compound_Path_" class="st0" d="M94.1,67.3c-9.4-7.2-27,3.3-42.4,16c-11.7,9.5-31.2,27.7-40.5,42.2
		c-17.6,27.5-0.1,29.9,18.9,22.9c7.2-2.6,17.6-8.6,17.6-8.6l5,5.3l6.3,6.6c0,0,20.4-12.7,31.8-39.1C96.6,98.9,100.2,72,94.1,67.3z
		 M23.3,134.3c-7.1,1.9-13,1.9-6.5-10.3c3.4-6.3,14.6-18.5,14.6-18.5s2.4,8.8,3.5,11.6s4.5,9.2,4.5,9.2S30.3,132.5,23.3,134.3
		L23.3,134.3z"/>
	<path id="_Compound_Path_2" class="st0" d="M78.6,68.6c2.7-1.4,5.4-2.7,8.3-3.7c-9.8-0.2-23.1,8.4-35.2,18.3
		c-11.7,9.6-31.2,27.7-40.5,42.2c-17.6,27.5-0.1,29.9,18.9,22.9c7.2-2.6,17.6-8.6,17.6-8.6l-5.4-8.8c-4.9-8-4.7-29.3,5.6-39.8
		C60.8,78.1,71.1,73.1,78.6,68.6z M23.3,134.3c-7.1,1.9-13,2-6.5-10.3c3.4-6.3,14.6-18.5,14.6-18.5s2.4,8.8,3.5,11.6
		s4.5,9.2,4.5,9.2S30.3,132.5,23.3,134.3z"/>
	<path id="_Compound_Path_3" class="st0" d="M31.4,105.5c-3.7,4.2-15.5,17.4-17.9,24.5c-2.7,8-0.7,12.7,12.9,9.4
		c7.4-1.8,17.2-6.4,17.2-6.4l-1.3-2.1c-4.9-8-2.9-19.7-2.9-24.8C39.4,104.4,34.2,102.4,31.4,105.5z M23.3,134.2
		c-7.1,1.9-13,2-6.5-10.3c3.4-6.3,14.6-18.5,14.6-18.5s2.4,8.8,3.5,11.6s4.5,9.2,4.5,9.2S30.3,132.5,23.3,134.2L23.3,134.2z"/>
	<path id="_Path_2" class="st0" d="M44.1,133.8c0,0-4.8-14.6-3.8-22.5c1.1-9,4.4-13.2,15.8-25c13.6-14,30.7-21.4,30.7-21.4
		s-11.4,0.6-29.6,14.7c-9.6,7.6-18.2,16.3-25.9,25.9c0,0,1.6,8,3.5,12.4C37.5,123.6,44.1,133.8,44.1,133.8z"/>
	<path id="_Path_3" class="st0" d="M35.1,54.5c5.9-4.6,12.2-8.8,18.7-12.5c11.1-5.8,22.8-10.2,34.9-13.3c0,0-20.3,11.3-34.8,21.8
		c-7.6,5.5-22.6,19.3-22.6,19.3c0.3-2.7,0.8-5.5,1.5-8.1C33.4,59.2,34.2,56.8,35.1,54.5z"/>
</g>
<g id="_Group_2">
	<path id="_Path_4" class="st0" d="M231.7,46.8c0,0,0,15.4-15.9,37.9c-4.7,6.7-9.9,13.2-15.5,19.2c0,0-1.6,27.5-29.9,50.3
		c-36.8,29.7-77,16.1-77,16.1c24.5-10,39.6-18.8,72.6-44.2C209,92.9,224.2,65.4,231.7,46.8z"/>
	<path id="_Compound_Path_4" class="st0" d="M137.5,106.2c9.4,7.3,27-3.2,42.5-15.8c11.7-9.5,31.3-27.6,40.6-42.1
		c17.6-27.5,0.2-29.9-18.9-23c-7.2,2.6-17.6,8.6-17.6,8.6l-5-5.3l-6.2-6.6c0,0-20.4,12.6-31.9,39C135,74.6,131.4,101.5,137.5,106.2z
		 M208.4,39.4c7.1-1.8,13-1.9,6.5,10.3c-3.4,6.3-14.7,18.5-14.7,18.5s-2.4-8.8-3.5-11.6s-4.4-9.2-4.4-9.2S201.4,41.2,208.4,39.4z"/>
	<path id="_Compound_Path_5" class="st0" d="M153,105c-2.7,1.4-5.4,2.6-8.3,3.6c9.8,0.2,23.2-8.4,35.3-18.2
		c11.7-9.5,31.3-27.6,40.6-42.1c17.6-27.5,0.2-29.9-18.9-23c-7.2,2.6-17.6,8.6-17.6,8.6l5.4,8.8c4.9,8.1,4.6,29.3-5.7,39.8
		C170.8,95.5,160.5,100.5,153,105z M208.4,39.4c7.1-1.8,13-1.9,6.5,10.3c-3.4,6.3-14.7,18.5-14.7,18.5s-2.4-8.8-3.5-11.6
		s-4.4-9.2-4.4-9.2S201.4,41.2,208.4,39.4L208.4,39.4z"/>
	<path id="_Compound_Path_6" class="st0" d="M200.2,68.2c3.7-4.2,15.6-17.3,18-24.5c2.7-8,0.7-12.7-12.9-9.4
		c-7.4,1.8-17.2,6.4-17.2,6.4l1.3,2.1c4.9,8.1,2.9,19.7,2.9,24.9C192.3,69.2,197.4,71.3,200.2,68.2z M208.4,39.4
		c7.1-1.8,13-1.9,6.5,10.3c-3.4,6.3-14.7,18.5-14.7,18.5s-2.4-8.8-3.5-11.6s-4.4-9.2-4.4-9.2S201.4,41.2,208.4,39.4L208.4,39.4z"/>
	<path id="_Path_5" class="st0" d="M187.6,39.8c0,0,4.7,14.6,3.7,22.6c-1.1,9-4.5,13.2-15.9,24.9c-13.7,14-30.7,21.3-30.7,21.3
		s11.4-0.5,29.6-14.6c9.6-7.6,18.3-16.3,26-25.8c0,0-1.5-8-3.5-12.4C194.2,50.1,187.6,39.8,187.6,39.8z"/>
	<path id="_Path_6" class="st0" d="M196.4,119.1c-5.9,4.6-12.2,8.8-18.7,12.5c-11.1,5.7-22.8,10.1-34.9,13.2
		c0,0,20.4-11.2,34.8-21.6c7.6-5.4,22.6-19.3,22.6-19.3c-0.3,2.7-0.8,5.5-1.5,8.1C198.1,114.4,197.4,116.8,196.4,119.1z"/>
</g>
<g id="_Group_3">
	<path class="st0" d="M296.3,72.4l-4.7,54.1c-0.2,2.1,0.8,3.2,2.8,3.2l-0.5,5.7H289c-2.4,0.1-4.8-0.7-6.7-2.3
		c-1.7-1.5-2.4-3.7-2.1-6.6l1.7-19.7h-10.8l-2.5,28.6h-11.4l5-57.2h-3.2l0.5-5.7H274l-2.5,28.6h10.8l2.5-28.6L296.3,72.4z"/>
	<path class="st0" d="M335.2,129.6l-0.5,5.7h-4c-4,0-6.9-1.2-8.7-3.5c-2.4,2.3-5.5,3.5-8.8,3.5h-1.8c-3.6,0.1-7-1-9.9-3.1
		c-2.9-2-4.4-5.5-4-9.1l1.6-19.1c0.4-3.7,2.4-7.1,5.6-9.1c3.1-2,6.7-3.1,10.4-3.1h19.7l-2.9,33.8
		C331.8,128.2,332.8,129.5,335.2,129.6z M322.9,97.7h-8.2c-2.4,0-3.8,1.4-4,4.3l-1.9,22c-0.3,3.8,1.3,5.7,4.9,5.7
		c1.8,0,3.4-0.7,4.7-1.9c1.3-1.2,2.1-2.8,2.3-4.5L322.9,97.7z"/>
	<path class="st0" d="M356.8,72.4l-4.6,52.3c-0.3,3.1,0.9,4.7,3.5,5l-0.4,5.7h-1.9c-4.2,0-7.4-1-9.6-2.9c-2.3-1.9-3.4-4.9-3-7.8
		l4.1-46.6h-3.1l0.5-5.7L356.8,72.4z"/>
	<path class="st0" d="M392.3,104.1l-1.7,19.1c-0.4,3.5-2.2,6.6-5.1,8.6c-3.1,2.4-7,3.6-10.9,3.5h-1.7c-3.6,0.1-7.1-1-10-3.1
		c-2.9-2-4.4-5.5-4-9.1l1.7-19.1c0.3-3.7,2.4-7.1,5.6-9.1c3.1-2.1,6.7-3.1,10.4-3.1h1.8c3.6-0.1,7,1,9.9,3.1
		C391.2,97,392.7,100.5,392.3,104.1z M380.8,104.1c0.3-1.6-0.1-3.3-0.9-4.7c-0.7-1-1.8-1.6-3-1.6c-1.3,0-2.4,0.6-3.2,1.5
		c-1.1,1.4-1.7,3-1.8,4.8l-1.6,19.1c-0.2,1.6,0.1,3.2,0.9,4.6c0.6,1.1,1.8,1.7,3,1.8c1.3,0,2.5-0.6,3.3-1.6c1.1-1.4,1.7-3.1,1.8-4.8
		L380.8,104.1z"/>
	<path class="st0" d="M433.7,72.5l-27,57.1h22.4l-0.5,5.7h-36.9l26.9-57.2h-17.2l0.5-5.6L433.7,72.5z"/>
	<path class="st0" d="M463.3,104.1h-5.7c0.2-1.6-0.3-3.2-1.4-4.4c-1-1.1-2.4-1.8-3.9-2c-1.9-0.2-3.8,0.6-5,2.1
		c-1.2,1.6-1.9,3.5-1.8,5.6c0,3.6,1.3,5.5,4,5.5H460l-0.5,5.6H449c-1.5,0-3,0.8-3.7,2.2c-1,1.5-1.4,3.2-1.4,5
		c-0.1,1.6,0.4,3.2,1.4,4.4c1,1.2,2.6,1.8,4.1,1.6c1.6-0.1,3.1-0.8,4.2-1.9c1.3-1.2,2.1-2.8,2.2-4.6h5.7c-0.2,3.6-2.1,7-5,9.1
		c-2.9,2.1-6.4,3.1-10,3c-3.6,0.1-7.1-1.2-9.8-3.4c-2.8-2-4.4-5.3-4.1-8.7c0.3-4,2.5-7.5,5.9-9.6c-3.1-3-4.6-6.2-4.3-9.6
		c0.3-3.7,2.4-7.1,5.6-9c3.1-2.1,6.7-3.2,10.4-3.2c4,0,7.2,1,9.5,3C462.4,97.1,463.6,100.1,463.3,104.1z"/>
	<path class="st0" d="M502.3,129.6l-0.5,5.7h-4.9c-2.4,0.1-4.9-0.6-6.8-2.1c-1.9-1.6-2.9-4.1-2.6-6.7l2-23.7
		c0.1-1.2-0.2-2.5-0.8-3.5c-0.7-1.1-2-1.8-3.3-1.8h-4.6l-3.3,37.7H466l3.3-37.7h-3.2l0.5-5.7h19.3c4.7,0,8.4,0.9,11,2.8
		c3,2.2,4.3,5.4,3.9,9.6l-1.8,21.6c-0.1,1.7,0.1,2.7,0.6,3.2C500,129.4,500.9,129.6,502.3,129.6z"/>
	<path class="st0" d="M544.7,72.4l-4.7,53.4c-0.2,2.6,1,3.8,3.6,3.8l-0.5,5.7h-4.3c-3.9,0-6.9-1.2-8.8-3.5c-2.6,2.4-6.1,3.6-9.7,3.5
		c-3.7,0.1-7.3-0.9-10.4-2.9c-3.2-2-4.9-5.6-4.4-9.3l1.6-19.1c0.4-3.7,2.4-7.1,5.6-9.1c3.1-2.1,6.7-3.1,10.4-3.1h8.2l1.3-13.8h-3.2
		l0.5-5.7L544.7,72.4z M531,97.7h-8.3c-2.4,0-3.7,1.4-3.9,4.3l-1.9,22c-0.3,3.8,1.3,5.7,4.8,5.7c1.8,0,3.4-0.7,4.7-1.9
		c1.3-1.2,2.1-2.8,2.3-4.5L531,97.7z"/>
</g>
</svg>
